<?xml version="1.0" standalone="no"?>
<!DOCTYPE svg PUBLIC "-//W3C//DTD SVG 20010904//EN"
 "http://www.w3.org/TR/2001/REC-SVG-20010904/DTD/svg10.dtd">
<svg version="1.0" xmlns="http://www.w3.org/2000/svg"
 width="800.000000pt" height="800.000000pt" viewBox="0 0 800.000000 800.000000"
 preserveAspectRatio="xMidYMid meet">
<metadata>
Created by potrace 1.14, written by Peter Selinger 2001-2017
</metadata>
<g transform="translate(0.000000,800.000000) scale(0.100000,-0.100000)"
fill="#000000" stroke="none">
<path d="M49 6443 c0 -16 0 -118 0 -228 0 -110 0 -418 1 -685 l0 -486 413 1
412 0 45 -41 c25 -23 63 -57 85 -75 22 -19 45 -38 51 -44 6 -5 36 -31 65 -56
78 -67 318 -276 359 -313 20 -17 67 -58 105 -91 39 -33 83 -72 100 -86 16 -15
107 -93 200 -174 94 -81 197 -171 230 -200 33 -29 98 -85 145 -125 47 -40 87
-76 90 -79 3 -3 70 -62 150 -131 80 -68 150 -129 156 -135 6 -5 33 -29 60 -52
27 -23 63 -53 79 -68 17 -14 63 -54 103 -88 39 -34 72 -68 73 -77 4 -59 3
-153 -1 -159 -3 -5 -169 -8 -370 -8 l-365 1 -3 -765 -2 -765 1780 0 1780 0 0
766 0 765 -360 -1 c-250 0 -360 3 -361 10 -1 6 -2 53 -3 104 -2 82 0 94 19
110 116 99 251 215 300 257 33 29 76 65 95 81 19 16 37 31 40 34 3 3 34 30 70
60 36 30 70 60 76 65 6 6 35 30 64 55 29 25 62 53 74 63 11 10 43 37 70 60 27
23 54 47 60 52 6 6 30 26 52 45 23 19 65 56 95 82 49 42 311 266 368 313 13
11 31 27 40 35 9 9 45 40 81 70 36 30 67 57 70 60 3 3 32 28 65 55 63 53 118
100 145 125 9 8 43 37 75 65 33 27 65 54 71 60 39 35 131 112 149 125 19 13
83 15 424 14 l401 0 0 713 0 713 -1640 0 -1640 0 -1 -617 c0 -340 0 -649 0
-688 -1 -38 0 -82 0 -96 l1 -26 98 2 c53 0 100 0 104 -2 7 -4 -70 -74 -212
-193 -70 -59 -130 -111 -150 -130 -9 -8 -37 -32 -63 -54 -43 -34 -50 -37 -65
-24 -9 8 -55 48 -102 88 -46 41 -98 87 -115 101 -53 46 -149 132 -185 166 -19
18 -38 33 -42 33 -5 0 -8 4 -8 8 0 4 73 8 163 8 l162 -1 0 712 0 713 -2112 0
-2113 0 -1 -27z"/>
</g>
</svg>
